<svg width="200" height="201" viewBox="0 0 200 201" fill="none" xmlns="http://www.w3.org/2000/svg">
<g clip-path="url(#clip0)">
<path d="M100.001 200.999C155.229 200.999 200 156.228 200 101C200 45.7713 155.229 1 100.001 1C44.7723 1 0.000976562 45.7713 0.000976562 101C0.000976562 156.228 44.7723 200.999 100.001 200.999Z" fill="#FAD24D"/>
<path d="M49.9894 138.986C56.8269 138.986 63.6647 138.986 70.5019 138.986L70.6143 140.388L60.5894 155.585L49.8218 140.238L49.9897 138.986H49.9894Z" fill="#B3B3B3"/>
<path d="M50.1839 144.185L50.4379 144.046L50.4439 143.757L50.6114 135.664L69.6469 135.238L70.3482 143.341L70.3698 143.591L70.5824 143.723L83.8628 151.977V180.351H59.8827H39.9704C38.5851 179.302 37.2285 178.214 35.8999 177.094V151.996L50.1839 144.185Z" stroke="black"/>
<path d="M80.1676 109.252C82.4074 110.16 80.0664 119.214 79.2105 120.477C78.5586 121.439 77.6042 121.202 76.9648 121.013C76.9674 120.993 76.97 120.973 76.9726 120.953L76.5209 120.893C76.5056 120.891 76.4909 120.889 76.4769 120.887C76.3585 121.784 76.258 122.635 76.1628 123.44C75.6853 127.482 75.3425 130.384 73.5406 132.281C71.4934 134.437 66.8078 138.829 64.3394 140.36C62.6676 140.712 61.4203 140.92 60.2473 140.982L80.1676 109.252ZM80.1676 109.252C79.0606 108.803 78.2969 109.024 77.8075 109.362L80.1676 109.252ZM42.9463 110.384C42.9463 110.384 42.9462 110.384 42.9516 110.381L43.8753 110.029C43.8786 110.028 43.8786 110.028 43.8787 110.028L43.8786 110.028L43.8786 110.028L43.8779 110.025L43.8742 110.013C43.8707 110.001 43.8653 109.983 43.8583 109.958C43.8443 109.909 43.8236 109.833 43.7984 109.734C43.7479 109.535 43.6791 109.24 43.6082 108.863C43.4663 108.109 43.3162 107.029 43.2861 105.735C43.226 103.144 43.6467 99.7125 45.5577 96.3126L45.5578 96.3125C48.1294 91.736 54.059 89.2835 60.2472 89.1002C66.4363 89.2839 72.3651 91.736 74.9368 96.3125L74.9368 96.3126C76.8484 99.7125 77.2692 103.144 77.209 105.735C77.1789 107.029 77.0288 108.109 76.8868 108.863C76.8159 109.24 76.7471 109.535 76.6966 109.734C76.6713 109.833 76.6507 109.909 76.6366 109.958C76.6296 109.983 76.6242 110.001 76.6208 110.013L76.617 110.025L76.6164 110.028L76.6163 110.028L76.6163 110.028C76.6163 110.028 76.6163 110.028 76.6196 110.029L77.5431 110.381C77.5485 110.384 77.5485 110.384 77.5485 110.384L77.5482 110.385L77.5479 110.385L77.55 110.381C77.5535 110.374 77.56 110.362 77.5697 110.345C77.5891 110.31 77.6207 110.258 77.6652 110.196C77.7551 110.071 77.8918 109.914 78.0793 109.782C78.4272 109.537 79.016 109.325 79.9797 109.715L79.9798 109.715C80.1001 109.764 80.231 109.882 80.3472 110.145C80.4646 110.411 80.5463 110.783 80.585 111.252C80.6623 112.189 80.56 113.4 80.3564 114.651C80.1539 115.896 79.8558 117.155 79.5563 118.177C79.4065 118.688 79.2578 119.136 79.1222 119.49C78.9823 119.856 78.869 120.089 78.7967 120.196L78.7966 120.196C78.6348 120.435 78.466 120.553 78.3095 120.615C78.1469 120.679 77.9634 120.696 77.7586 120.676C77.5514 120.656 77.3433 120.602 77.1362 120.542C77.1037 120.532 77.0692 120.522 77.0343 120.512C76.9666 120.491 76.8971 120.471 76.8369 120.454C76.7455 120.429 76.6341 120.401 76.5257 120.39L76.0446 120.343L75.9813 120.822C75.8602 121.739 75.7586 122.599 75.663 123.408C75.4736 125.012 75.3079 126.415 75.0614 127.658C74.6935 129.512 74.1622 130.9 73.1781 131.937C72.1653 133.003 70.4919 134.631 68.7639 136.183C67.0639 137.709 65.3405 139.136 64.1494 139.889C62.5423 140.226 61.3539 140.42 60.2473 140.481C59.1406 140.42 57.9515 140.226 56.3451 139.889C55.1546 139.136 53.4312 137.709 51.7312 136.183C50.0032 134.631 48.3298 133.003 47.3177 131.937L47.3177 131.937C46.3334 130.9 45.8019 129.512 45.4337 127.658C45.1868 126.414 45.0208 125.009 44.831 123.403C44.7356 122.596 44.6341 121.737 44.5133 120.822L44.4499 120.343L43.9687 120.39C43.8604 120.401 43.749 120.429 43.6578 120.454C43.5978 120.471 43.5285 120.491 43.4609 120.512C43.4258 120.522 43.3912 120.532 43.3587 120.542C43.1516 120.603 42.9436 120.657 42.7363 120.676C42.5315 120.696 42.3478 120.68 42.1852 120.616C42.0287 120.554 41.8598 120.435 41.698 120.196L41.6979 120.196C41.6256 120.089 41.5124 119.856 41.3725 119.491C41.2371 119.136 41.0884 118.688 40.9388 118.177C40.6395 117.155 40.3416 115.896 40.1393 114.651C39.9359 113.4 39.8338 112.189 39.911 111.252C39.9498 110.783 40.0314 110.411 40.1488 110.145C40.265 109.882 40.3958 109.764 40.516 109.715L40.5162 109.715C41.48 109.324 42.0685 109.536 42.416 109.782C42.6033 109.914 42.7398 110.07 42.8297 110.196C42.8741 110.257 42.9057 110.31 42.9251 110.344C42.9347 110.361 42.9413 110.374 42.9447 110.381L42.9474 110.386L42.9469 110.385L42.9465 110.384L42.9463 110.384Z" stroke="black"/>
<path d="M42.8122 146.269L46.295 144.898L49.1013 142.376L59.011 149.893H61.4794L71.3935 142.367L77.6825 146.27L88.6099 164.846L82.2356 199.427C62.481 195.885 44.7399 186.541 30.836 173.222L28.5298 166.329L42.8122 146.269Z" fill="#15BDB2"/>
<path d="M74.503 143.921L70.5019 138.987L61.48 149.892L69.2237 158.496L74.5026 143.921V143.921H74.503Z" fill="#21D0C3"/>
<path d="M45.9839 143.835L49.9901 138.988L59.012 149.893L50.9605 158.408L45.9839 143.835Z" fill="#21D0C3"/>
<path d="M45.9839 143.834L19.466 152.458C18.3871 152.809 17.7097 153.726 17.4906 154.838L17.0808 156.914C26.8742 171.408 40.3679 183.193 56.2066 190.92L45.9851 143.834H45.9839V143.834V143.834Z" fill="white"/>
<path d="M45.9841 143.834L42.9462 144.767L34.8989 158.497L45.0567 158.815L38.82 162.366L50.3931 187.846C52.2915 188.933 54.2302 189.956 56.2048 190.921L45.9833 143.835L45.9841 143.834Z" fill="#EEF3F7"/>
<path d="M74.5031 143.921L101.03 152.458C102.111 152.805 102.787 153.725 103.005 154.837L111.898 200.292C107.996 200.755 104.027 201 100 201C96.9879 201 94.0074 200.858 91.0629 200.598L89.1551 194.127C89.1129 193.981 88.9719 193.891 88.8211 193.909C88.6703 193.928 88.5566 194.048 88.5484 194.2L88.3188 200.318C79.6934 199.313 71.4016 197.217 63.5898 194.162L74.5039 143.922L74.5031 143.921Z" fill="#EEF3F7"/>
<path d="M74.503 143.921L76.1897 144.434L85.5886 158.584L75.4308 158.904L81.6675 162.454L66.7163 195.319C65.6659 194.948 64.6222 194.565 63.5894 194.161L74.5034 143.922V143.921H74.503Z" fill="white"/>
<path d="M44.6076 104.36L44.6366 104.921L44.6366 104.921L44.6366 104.921L44.6367 104.922L44.6369 104.926L44.6378 104.945C44.6385 104.962 44.6396 104.987 44.6409 105.02C44.6434 105.086 44.6467 105.182 44.6493 105.302C44.6546 105.541 44.6576 105.872 44.6483 106.238C44.6292 106.991 44.5592 107.823 44.3845 108.34C44.1693 108.976 43.9625 109.986 43.8121 110.81C43.7359 111.227 43.6725 111.607 43.6282 111.882C43.6255 111.899 43.6229 111.915 43.6204 111.931L43.2137 111.956L43.0435 110.406L43.0243 110.231L42.8999 110.106L41.6066 108.814C41.6073 108.806 41.608 108.798 41.6087 108.789C41.6261 108.578 41.6396 108.233 41.631 107.676C41.6137 106.562 41.5072 104.571 41.1542 101.039L41.1542 101.039C40.4832 94.3345 46.1155 86.0626 59.0156 84.4598L59.0156 84.4598C65.4496 83.6602 68.711 85.308 70.3725 87.0351C71.2128 87.9087 71.6705 88.8288 71.9179 89.5289C72.0415 89.8789 72.1122 90.1725 72.1516 90.3753C72.1713 90.4766 72.1831 90.555 72.1899 90.606C72.1933 90.6316 72.1954 90.6502 72.1965 90.6615L72.1976 90.6725L72.1977 90.6728L72.1977 90.6732L72.1977 90.6737L72.1978 90.6741L72.2357 91.1545L72.7187 91.1327C74.3806 91.0576 75.575 91.6443 76.4524 92.662C77.3495 93.7024 77.9402 95.2245 78.2893 97.0426C78.9768 100.622 78.6915 105.143 78.2206 108.758L76.8713 110.106L76.7789 110.198L76.7434 110.324L76.3405 111.752L75.8497 111.769C75.8909 111.566 75.9241 111.325 75.935 111.051C75.9706 110.161 75.7688 108.947 74.8786 107.583L74.8785 107.583C74.1267 106.43 73.9301 105.036 73.9284 103.584C73.9275 102.898 73.9698 102.216 74.011 101.55C74.0133 101.514 74.0155 101.477 74.0178 101.441C74.0605 100.749 74.1002 100.067 74.077 99.4545L74.077 99.4545C74.0015 97.4619 73.5714 96.1425 72.7556 95.4734C71.8929 94.7658 70.8024 94.93 69.8216 95.3813C68.828 95.8386 67.7895 96.6541 66.8516 97.5396C65.9077 98.4309 65.0371 99.4206 64.3796 100.257C63.4261 101.47 61.7892 102.365 59.7889 103.008C57.7997 103.648 55.515 104.018 53.3402 104.225C51.1684 104.432 49.1232 104.475 47.6198 104.466C46.8685 104.461 46.2538 104.444 45.8275 104.427C45.6145 104.419 45.4486 104.411 45.3364 104.405C45.2803 104.402 45.2377 104.4 45.2093 104.398L45.1775 104.397L45.1698 104.396L45.1681 104.396L45.1677 104.396L44.6076 104.36ZM40.6567 101.089L40.6653 101.088L40.6567 101.089Z" stroke="black"/>
<path d="M63.5878 194.161L64.4261 190.304L61.5867 152.39L63.1335 151.73L61.4796 149.892H59.0113L57.3148 151.686L58.907 152.39L56.1375 190.611L56.205 190.92C58.614 192.095 61.0753 193.179 63.5874 194.161V194.16H63.5878V194.161Z" fill="#0F7986"/>
<path d="M86.2347 184.88C83.3624 184.384 81.4363 181.654 81.9324 178.781C82.4285 175.91 85.1589 173.983 88.0296 174.478C90.9027 174.974 92.8288 177.705 92.3327 180.577C91.8374 183.449 89.107 185.375 86.2347 184.88Z" fill="#FEFEFE"/>
<path d="M86.2872 184.577C83.5825 184.11 81.7689 181.539 82.2349 178.834C82.7021 176.13 85.2739 174.315 87.9778 174.782C90.6825 175.249 92.4962 177.821 92.0302 180.526C91.563 183.231 88.9923 185.045 86.2872 184.577Z" fill="#0F7986"/>
<path d="M86.6641 182.39C85.168 182.13 84.1641 180.708 84.4223 179.212C84.6817 177.716 86.1047 176.712 87.5997 176.971C89.0965 177.23 90.1004 178.651 89.8426 180.148C89.5844 181.644 88.161 182.648 86.6641 182.39Z" fill="#EBECEC"/>
<path d="M86.9878 177.265L88.1968 177.473L88.8464 173.71L87.6382 173.502L86.9878 177.265Z" fill="#FEFEFE"/>
<path d="M47.0273 185.823L48.7824 185.475C49.7445 185.284 50.5417 184.717 51.0488 183.957C51.5558 183.198 51.7773 182.245 51.5855 181.282L48.9222 167.866C47.9171 162.803 43.957 160.221 39.4316 159.648C37.6972 159.429 35.8793 159.509 34.1179 159.859C32.3558 160.207 30.6464 160.827 29.1281 161.692C27.0902 162.853 25.3945 164.45 24.3679 166.42C24.5945 166.682 24.8261 166.937 25.0546 167.195C25.9695 165.233 27.6039 163.65 29.5957 162.516C31.025 161.702 32.6378 161.117 34.3027 160.787C35.9668 160.457 37.6808 160.382 39.314 160.589C43.4566 161.113 47.0785 163.459 47.989 168.051L50.6523 181.468C50.7925 182.173 50.6296 182.872 50.2578 183.429C49.8847 183.985 49.3007 184.402 48.5949 184.541L46.3304 184.99L46.4207 185.445C46.6214 185.572 46.8242 185.696 47.0253 185.823H47.0273V185.823Z" fill="#21D0C3"/>
<path d="M49.6403 169.854L49.2336 167.804C48.1977 162.585 44.1231 159.924 39.47 159.335C37.7024 159.111 35.8508 159.191 34.0571 159.548C32.2618 159.904 30.5211 160.536 28.9739 161.417C26.9215 162.586 25.2063 164.187 24.1458 166.157C24.5219 166.595 24.904 167.026 25.2872 167.456C26.1622 165.495 27.7762 163.915 29.7516 162.79C31.1524 161.993 32.7321 161.42 34.3645 161.096C35.9958 160.773 37.6758 160.7 39.2762 160.902C43.2895 161.408 46.7989 163.677 47.679 168.113L48.0856 170.162L49.6403 169.854Z" fill="#4D4D4D"/>
<path d="M47.4789 185.937L47.275 185.978C46.4582 185.471 45.6508 184.952 44.8496 184.422C45.2953 184.366 45.7238 184.541 46.0062 184.859L47.2164 184.618L47.4777 185.937H47.4789Z" fill="#076673"/>
<path d="M34.7935 159.427L34.3313 157.1L33.4134 157.282L32.4966 157.465L32.9638 159.815C33.313 159.713 33.6677 159.627 34.0255 159.556C34.2798 159.506 34.5356 159.463 34.7938 159.428V159.427H34.7935Z" fill="#666666"/>
<path d="M86.518 182.364C85.1032 182.119 84.1532 180.774 84.3981 179.359C84.6422 177.944 85.9872 176.994 87.4024 177.239C88.8172 177.484 89.7672 178.829 89.5223 180.244C89.2774 181.659 87.9321 182.609 86.5172 182.364H86.518Z" fill="#FEFEFE"/>
<path d="M45.9964 144.532C45.9554 144.532 31.6621 144.65 34.0773 157.156L32.7484 157.41C30.0273 143.312 45.9363 143.182 45.9812 143.182L45.9964 144.532Z" fill="#4D4D4D"/>
<path d="M74.5184 143.246C76.8504 143.308 81.3586 143.943 84.8278 148.164C88.2235 152.294 90.6036 159.88 88.8227 173.787L87.4825 173.618C89.2059 160.158 86.9797 152.911 83.7836 149.022C80.6618 145.224 76.5907 144.651 74.4856 144.595L74.5172 143.246H74.5184Z" fill="#4D4D4D"/>
<path d="M134.941 194.191L132.026 148.208L138.378 146.024L138.65 145.931L138.706 145.649L140.631 135.974L155.331 135.571L157.429 145.432L157.489 145.717L157.768 145.805L161.698 147.041L161.089 179.542C153.231 185.663 144.43 190.631 134.941 194.191Z" stroke="black"/>
<path d="M129.981 165.34C141.154 170.759 152.648 171.895 164.748 165.647L164.646 177.288C154.529 185.87 142.684 192.478 129.706 196.513L129.981 165.341V165.34Z" fill="#21D0C3"/>
<path d="M160.075 146.093L179.54 151.402C181.473 151.999 183.326 152.805 184.886 153.873C176.013 168.088 163.669 179.91 149.042 188.16L160.076 146.093H160.075V146.093V146.093Z" fill="#EEF3F7"/>
<path d="M159.89 145.956L162.456 146.99L171.204 160.125L160.95 159.96L167.305 163.362L152.719 185.982C151.5 186.741 150.263 187.473 149.01 188.179L159.891 145.956H159.89V145.956Z" fill="white"/>
<path d="M137.305 145.892L117.749 150.857C112.674 152.327 108.114 155.23 107.875 160.59L106.082 200.809C111.159 200.505 116.134 199.822 120.979 198.787L121.903 186.357L123.402 198.238C131.54 196.286 139.291 193.339 146.52 189.534L137.305 145.892Z" fill="white"/>
<path d="M137.492 147.758L134.435 148.929L125.93 161.725L136.188 161.741L129.772 165.029L145.257 192.193C145.687 191.975 146.112 191.749 146.539 191.525L137.492 147.758Z" fill="#EEF3F7"/>
<path d="M130.297 111.711L130.303 111.714L130.303 111.715L130.303 111.715L130.304 111.715L130.304 111.715L130.304 111.715L131.001 112.148L131.066 111.329C131.372 107.448 131.868 104.667 132.98 102.086C134.037 99.6354 135.666 97.3332 138.284 94.4358C138.311 94.4731 138.339 94.5122 138.368 94.553C138.662 94.9582 139.096 95.533 139.664 96.2169C140.8 97.584 142.475 99.3916 144.63 101.154C148.838 104.595 154.921 107.894 162.423 107.34L162.577 111.012L162.61 111.789L163.303 111.437L163.303 111.437L163.303 111.437L163.303 111.437L163.303 111.437L163.305 111.436L163.32 111.429C163.333 111.422 163.355 111.412 163.383 111.399C163.44 111.374 163.523 111.338 163.627 111.298C163.836 111.219 164.114 111.13 164.409 111.081C165.031 110.978 165.508 111.079 165.751 111.51C167.073 113.858 166.882 116.49 166.179 118.509C165.828 119.517 165.358 120.344 164.915 120.882C164.692 121.152 164.491 121.329 164.334 121.425C164.224 121.492 164.169 121.499 164.156 121.5L163.679 121.337L163.528 121.831C163.319 122.514 161.771 126.634 159.09 130.792C156.411 134.948 152.692 138.998 148.163 139.869C142.881 138.922 138.8 134.437 136.005 130.051C134.609 127.861 133.554 125.726 132.848 124.139C132.495 123.345 132.23 122.69 132.053 122.234C131.965 122.006 131.899 121.828 131.855 121.707C131.833 121.647 131.817 121.601 131.806 121.571L131.794 121.537L131.791 121.529L131.791 121.527L131.79 121.527L131.79 121.527L131.666 121.164L131.283 121.19C130.462 121.247 129.814 120.925 129.28 120.323C128.731 119.703 128.31 118.791 128.008 117.722C127.427 115.668 127.328 113.193 127.462 111.583C127.632 111.432 127.791 111.312 127.932 111.226C128.121 111.112 128.23 111.09 128.272 111.091C128.788 111.102 129.296 111.254 129.687 111.413C129.879 111.492 130.037 111.569 130.146 111.626C130.2 111.655 130.241 111.678 130.268 111.694C130.282 111.702 130.291 111.707 130.297 111.711Z" stroke="black"/>
<path d="M166.835 98.939L166.346 99.0428C166.346 99.0428 166.346 99.0428 166.346 99.0428C164.788 91.6997 159.761 87.0053 153.883 84.9549C147.989 82.8991 141.277 83.5149 136.401 86.7637L136.358 86.7922L136.311 86.8112L136.311 86.8112L136.31 86.8114L136.308 86.8124L136.293 86.8185C136.28 86.8243 136.258 86.8336 136.229 86.8465C136.171 86.8724 136.083 86.9128 135.969 86.9689C135.741 87.081 135.409 87.2556 135.005 87.5013C134.195 87.993 133.095 88.7683 131.945 89.8968C129.649 92.1498 127.149 95.8183 126.375 101.482C125.585 107.263 125.344 110.415 125.298 112.115C125.276 112.965 125.302 113.441 125.331 113.695C125.344 113.811 125.357 113.876 125.364 113.905L125.414 113.998L125.402 114.145L122.666 149.096C124.008 148.762 125.393 148.435 126.79 148.106C130.546 147.221 134.397 146.313 137.781 145.171L174.023 149.901C173.993 149.721 173.964 149.541 173.935 149.36C174.111 149.407 174.288 149.454 174.464 149.501C173.395 142.917 172.5 136.131 171.609 129.378C170.22 118.851 168.842 108.406 166.835 98.939ZM166.835 98.939C163.638 83.8703 146.169 79.6551 136.123 86.3476L166.835 98.939Z" stroke="black"/>
<path d="M134.985 188.445L137.255 187.995C138.218 187.804 139.016 187.236 139.524 186.475C140.033 185.715 140.254 184.76 140.061 183.795L137.395 170.357C136.388 165.285 132.422 162.699 127.888 162.126C126.15 161.906 124.329 161.986 122.565 162.337C120.8 162.686 119.087 163.307 117.568 164.173C113.607 166.428 110.938 170.329 111.945 175.408L114.613 188.848C114.804 189.812 115.374 190.609 116.134 191.119H116.135C116.896 191.628 117.849 191.847 118.812 191.657L121.079 191.206L120.893 190.273L118.626 190.723C117.92 190.862 117.219 190.702 116.661 190.329C116.103 189.955 115.687 189.37 115.546 188.664L112.879 175.225C111.965 170.616 114.409 167.064 118.034 165.001C119.466 164.184 121.082 163.599 122.75 163.268C124.416 162.939 126.134 162.862 127.769 163.069C131.919 163.594 135.547 165.944 136.46 170.544L139.128 183.984C139.268 184.69 139.106 185.39 138.733 185.948C138.359 186.506 137.774 186.922 137.068 187.062L134.799 187.512L134.985 188.447L134.985 188.445Z" fill="#21D0C3"/>
<path d="M138.114 172.35L137.707 170.296C136.67 165.068 132.588 162.404 127.927 161.814C126.155 161.591 124.3 161.669 122.503 162.027C120.706 162.383 118.961 163.016 117.412 163.898C113.338 166.218 110.594 170.234 111.634 175.471L112.042 177.525L113.598 177.215L113.191 175.162C112.307 170.71 114.679 167.274 118.19 165.275C119.594 164.477 121.177 163.903 122.811 163.578C124.446 163.255 126.129 163.18 127.732 163.382C131.753 163.891 135.267 166.162 136.149 170.605L136.557 172.659L138.113 172.349L138.114 172.35Z" fill="#4D4D4D"/>
<path d="M119.282 191.768L120.496 191.527C120.8 191.869 121.27 192.045 121.751 191.95C122.473 191.807 122.942 191.105 122.799 190.383C122.656 189.662 121.955 189.193 121.233 189.337C120.752 189.433 120.383 189.775 120.232 190.207L119.019 190.448L119.282 191.769L119.282 191.768Z" fill="#076673"/>
<path d="M135.949 188.46L134.737 188.701C134.587 189.133 134.218 189.475 133.736 189.571C133.016 189.713 132.314 189.245 132.17 188.522C132.028 187.801 132.496 187.099 133.217 186.956C133.699 186.861 134.17 187.038 134.474 187.379L135.686 187.137L135.948 188.46H135.949Z" fill="#076673"/>
<path d="M123.243 161.905L122.778 159.574L121.859 159.756L120.941 159.939L121.409 162.292C121.759 162.189 122.113 162.104 122.472 162.033C122.729 161.982 122.984 161.939 123.243 161.906V161.905Z" fill="#666666"/>
<path d="M121.256 190.47C121.475 190.427 121.616 190.215 121.573 189.996C121.53 189.777 121.318 189.636 121.1 189.678C120.881 189.721 120.739 189.934 120.782 190.153C120.825 190.371 121.037 190.513 121.256 190.469V190.47Z" fill="#0F7986"/>
<path d="M133.251 188.086C133.47 188.043 133.611 187.83 133.569 187.613C133.523 187.394 133.313 187.253 133.093 187.295C132.875 187.339 132.734 187.55 132.777 187.77C132.82 187.988 133.032 188.129 133.251 188.086Z" fill="#0F7986"/>
<path d="M134.464 146.984C134.422 146.984 120.106 147.103 122.524 159.629L121.193 159.884C118.467 145.764 134.404 145.633 134.449 145.631L134.464 146.984Z" fill="#4D4D4D"/>
<path d="M163.035 145.697C165.371 145.759 169.887 146.395 173.362 150.623C175.562 153.3 177.337 157.427 177.833 163.78C177.419 164.293 177 164.801 176.576 165.306C176.275 158.466 174.527 154.172 172.317 151.483C169.189 147.678 165.112 147.105 163.003 147.048L163.035 145.697Z" fill="#4D4D4D"/>
</g>
<g clip-path="url(#clip1)">
<path d="M165.151 58.0766C164.821 58.0766 164.553 58.3442 164.553 58.6744V63.9815C164.552 64.9715 163.75 65.7737 162.76 65.7747H145.989C144.999 65.7737 144.197 64.9715 144.195 63.9815V48.4054C144.197 47.4157 144.999 46.6134 145.989 46.6122H151.296C151.626 46.6122 151.893 46.3447 151.893 46.0145C151.893 45.6846 151.626 45.4168 151.296 45.4168H145.989C144.339 45.4186 143.002 46.7556 143 48.4054V63.9817C143.002 65.6315 144.339 66.9685 145.989 66.9703H162.76C164.41 66.9685 165.747 65.6315 165.749 63.9817V58.6744C165.749 58.3442 165.481 58.0766 165.151 58.0766V58.0766Z" fill="#0A424C"/>
<path d="M165.512 43.8788C164.462 42.8284 162.759 42.8284 161.708 43.8788L151.044 54.5426C150.971 54.6157 150.918 54.7063 150.891 54.8057L149.489 59.8684C149.431 60.076 149.49 60.2983 149.642 60.4507C149.794 60.603 150.017 60.6616 150.224 60.6041L155.287 59.2016C155.386 59.174 155.477 59.1213 155.55 59.0482L166.213 48.3842C167.262 47.333 167.262 45.6314 166.213 44.5802L165.512 43.8788ZM152.347 54.9311L161.074 46.2034L163.889 49.0181L155.161 57.7458L152.347 54.9311ZM151.784 56.0593L154.033 58.3083L150.923 59.17L151.784 56.0593ZM165.368 47.5389L164.734 48.1729L161.919 45.3579L162.554 44.724C163.137 44.1406 164.083 44.1406 164.667 44.724L165.368 45.4254C165.951 46.0096 165.951 46.955 165.368 47.5389V47.5389Z" fill="#0A424C"/>
</g>
<path d="M42.492 41.836C46.092 41.524 48.744 41.368 50.448 41.368C52.152 41.368 53.58 41.608 54.732 42.088C55.884 42.544 56.808 43.156 57.504 43.924C58.2 44.668 58.752 45.604 59.16 46.732C59.88 48.628 60.24 51.088 60.24 54.112C60.24 63.016 56.916 67.468 50.268 67.468C49.188 67.468 46.596 67.312 42.492 67V41.836ZM50.196 63.832C51.996 63.832 53.208 63.544 53.832 62.968C55.056 61.84 55.668 58.912 55.668 54.184C55.668 49.432 55.092 46.6 53.94 45.688C53.388 45.232 52.332 45.004 50.772 45.004L46.668 45.22L46.704 63.544C48 63.736 49.164 63.832 50.196 63.832ZM62.0943 41.836H80.1303V45.544L73.1103 45.436L73.1823 67H69.0063L69.1143 45.436L62.0943 45.544V41.836ZM99.464 56.488C99.464 60.088 98.816 62.824 97.52 64.696C96.224 66.544 94.028 67.468 90.932 67.468C87.86 67.468 85.664 66.544 84.344 64.696C83.048 62.824 82.4 60.088 82.4 56.488C82.4 52.888 83.048 50.152 84.344 48.28C85.664 46.408 87.86 45.472 90.932 45.472C94.028 45.472 96.224 46.408 97.52 48.28C98.816 50.152 99.464 52.888 99.464 56.488ZM87.584 62.68C88.184 63.664 89.312 64.156 90.968 64.156C92.624 64.156 93.74 63.664 94.316 62.68C94.892 61.672 95.18 59.608 95.18 56.488C95.18 53.344 94.892 51.28 94.316 50.296C93.74 49.312 92.624 48.82 90.968 48.82C89.312 48.82 88.184 49.312 87.584 50.296C87.008 51.28 86.72 53.344 86.72 56.488C86.72 59.608 87.008 61.672 87.584 62.68ZM120.98 56.488C120.98 60.088 120.332 62.824 119.036 64.696C117.74 66.544 115.544 67.468 112.448 67.468C109.376 67.468 107.18 66.544 105.86 64.696C104.564 62.824 103.916 60.088 103.916 56.488C103.916 52.888 104.564 50.152 105.86 48.28C107.18 46.408 109.376 45.472 112.448 45.472C115.544 45.472 117.74 46.408 119.036 48.28C120.332 50.152 120.98 52.888 120.98 56.488ZM109.1 62.68C109.7 63.664 110.828 64.156 112.484 64.156C114.14 64.156 115.256 63.664 115.832 62.68C116.408 61.672 116.696 59.608 116.696 56.488C116.696 53.344 116.408 51.28 115.832 50.296C115.256 49.312 114.14 48.82 112.484 48.82C110.828 48.82 109.7 49.312 109.1 50.296C108.524 51.28 108.236 53.344 108.236 56.488C108.236 59.608 108.524 61.672 109.1 62.68ZM126.151 67V39.748H130.327V67H126.151Z" fill="black"/>
<defs>
<clipPath id="clip0">
<rect y="1" width="200" height="200" fill="white"/>
</clipPath>
<clipPath id="clip1">
<rect x="143" y="43" width="24" height="24" fill="white"/>
</clipPath>
</defs>
</svg>
