<svg width="46" height="40" viewBox="0 0 46 40" fill="none" xmlns="http://www.w3.org/2000/svg">
<g clip-path="url(#clip0)">
<path d="M9.61328 10.6716L12.0994 9.15969L14.4126 12.0236L11.9265 13.5355L9.61328 10.6716Z" fill="#CDD2E1"/>
<path d="M31.3821 11.9082L33.4845 9.30523L35.9706 10.8171L33.8682 13.4201L31.3821 11.9082Z" fill="#CDD2E1"/>
<path d="M21.3188 3.07248H24.3544V8.34056H21.3188V3.07248Z" fill="#CDD2E1"/>
<path d="M19.8013 10.6672V7.50052C19.8013 7.23706 20.0474 7.02353 20.351 7.02353H25.3228C25.6264 7.02353 25.8725 7.23706 25.8725 7.50052V10.6671H19.8013V10.6672Z" fill="#9CA1AF"/>
<path d="M25.3225 7.02353H23.2153C23.519 7.02353 23.765 7.23706 23.765 7.50052V10.6671H25.8722V7.50052C25.8722 7.23714 25.6262 7.02353 25.3225 7.02353Z" fill="#717891"/>
<path d="M16.7656 3.91254V1.75553C16.7656 1.02821 17.4451 0.438492 18.2834 0.438492H27.3902C28.2285 0.438492 28.9081 1.02821 28.9081 1.75553V3.91254C28.9081 4.176 28.662 4.38953 28.3584 4.38953H17.3153C17.0117 4.38953 16.7656 4.176 16.7656 3.91254Z" fill="#F2F6FC"/>
<path d="M27.3902 0.438492H25.283C26.1213 0.438492 26.8009 1.02821 26.8009 1.75553V3.91254C26.8009 4.176 26.5548 4.38953 26.2512 4.38953H28.3584C28.662 4.38953 28.9081 4.176 28.9081 3.91254V1.75553C28.908 1.02821 28.2284 0.438492 27.3902 0.438492V0.438492Z" fill="#CDD2E1"/>
<path d="M25.9178 2.47626C25.5383 2.47626 25.2307 2.74321 25.2307 3.07249V4.38953H26.605V3.07249C26.605 2.74321 26.2973 2.47626 25.9178 2.47626Z" fill="#9CA1AF"/>
<path d="M22.8824 2.47626C22.5029 2.47626 22.1953 2.74321 22.1953 3.07249V4.38953H23.5696V3.07249C23.5696 2.74321 23.262 2.47626 22.8824 2.47626Z" fill="#9CA1AF"/>
<path d="M19.8468 2.47626C19.4672 2.47626 19.1597 2.74321 19.1597 3.07249V4.38953H20.5339V3.07249C20.5339 2.74321 20.2264 2.47626 19.8468 2.47626Z" fill="#9CA1AF"/>
<path d="M35.1717 35.5107C41.9871 29.5969 41.9871 20.0086 35.1717 14.0947C28.3562 8.18088 17.3063 8.18088 10.4908 14.0947C3.67539 20.0086 3.67539 29.5969 10.4908 35.5107C17.3063 41.4246 28.3562 41.4246 35.1717 35.5107Z" fill="#19CFFC"/>
<path d="M22.8368 9.65759C22.4829 9.65759 22.1319 9.66785 21.7832 9.68581C30.9324 10.1587 38.1842 16.7455 38.1842 24.8032C38.1842 32.8609 30.9324 39.4478 21.7832 39.9207C22.1319 39.9387 22.4829 39.9489 22.8368 39.9489C32.4767 39.9489 40.2914 33.168 40.2914 24.8032C40.2914 16.4385 32.4768 9.65759 22.8368 9.65759Z" fill="#27ADE2"/>
<path d="M7.09353 12.1503L5.6677 10.3834C5.18689 9.78758 5.35373 8.96629 6.04049 8.54908L11.0136 5.52746C11.7003 5.11025 12.6468 5.25502 13.1276 5.85093L14.5535 7.61785C14.7276 7.83361 14.6672 8.13109 14.4185 8.28213L7.85918 12.2674C7.61044 12.4186 7.2677 12.3661 7.09353 12.1503Z" fill="#F2F6FC"/>
<path d="M33.0256 33.6484C38.6557 28.7631 38.6557 20.8424 33.0256 15.957C27.3954 11.0717 18.2672 11.0717 12.6371 15.957C7.00698 20.8424 7.00698 28.7631 12.6371 33.6484C18.2672 38.5338 27.3954 38.5338 33.0256 33.6484Z" fill="#F2F6FC"/>
<path d="M22.8368 17.4974C22.4573 17.4974 22.1497 17.2305 22.1497 16.9011V14.9256C22.1497 14.5963 22.4573 14.3294 22.8368 14.3294C23.2163 14.3294 23.5239 14.5963 23.5239 14.9256V16.9011C23.5239 17.2305 23.2163 17.4974 22.8368 17.4974Z" fill="#06CCAB"/>
<path d="M13.7299 25.3994H11.4532C11.0738 25.3994 10.7661 25.1326 10.7661 24.8032C10.7661 24.4738 11.0738 24.207 11.4532 24.207H13.7299C14.1094 24.207 14.4171 24.4738 14.4171 24.8032C14.4171 25.1326 14.1094 25.3994 13.7299 25.3994Z" fill="#06CCAB"/>
<path d="M22.8368 35.277C22.4573 35.277 22.1497 35.0102 22.1497 34.6808V32.7053C22.1497 32.3759 22.4573 32.109 22.8368 32.109C23.2163 32.109 23.5239 32.3759 23.5239 32.7053V34.6808C23.5239 35.0102 23.2163 35.277 22.8368 35.277Z" fill="#06CCAB"/>
<path d="M34.2201 25.3994H31.9435C31.5639 25.3994 31.2563 25.1326 31.2563 24.8032C31.2563 24.4738 31.5639 24.207 31.9435 24.207H34.2201C34.5997 24.207 34.9073 24.4738 34.9073 24.8032C34.9073 25.1326 34.5997 25.3994 34.2201 25.3994Z" fill="#06CCAB"/>
<path d="M15.8607 19.3462C15.6848 19.3462 15.5089 19.288 15.3748 19.1716L14.3016 18.2403C14.0333 18.0074 14.0333 17.6299 14.3016 17.3971C14.57 17.1643 15.005 17.1643 15.2733 17.3972L16.3465 18.3285C16.6149 18.5614 16.6149 18.9389 16.3465 19.1717C16.2124 19.288 16.0365 19.3462 15.8607 19.3462Z" fill="#9CA1AF"/>
<path d="M14.7874 32.384C14.6116 32.384 14.4357 32.3258 14.3016 32.2095C14.0333 31.9766 14.0333 31.5991 14.3016 31.3663L15.3748 30.435C15.6432 30.2021 16.0782 30.2021 16.3465 30.4349C16.6149 30.6678 16.6149 31.0453 16.3465 31.2781L15.2733 32.2094C15.1392 32.3258 14.9633 32.384 14.7874 32.384Z" fill="#9CA1AF"/>
<path d="M30.886 32.384C30.7102 32.384 30.5343 32.3258 30.4 32.2094L29.3267 31.2781C29.0584 31.0452 29.0584 30.6677 29.3267 30.4349C29.5952 30.2021 30.0302 30.2021 30.2985 30.4349L31.3718 31.3662C31.6402 31.5991 31.6402 31.9766 31.3718 32.2094C31.2377 32.3257 31.0618 32.384 30.886 32.384Z" fill="#9CA1AF"/>
<path d="M29.8129 19.3462C29.6371 19.3462 29.4612 19.288 29.327 19.1717C29.0586 18.9387 29.0586 18.5613 29.327 18.3284L30.4003 17.3971C30.6687 17.1643 31.1037 17.1643 31.3721 17.3971C31.6404 17.63 31.6404 18.0075 31.3721 18.2403L30.2988 19.1717C30.1646 19.288 29.9887 19.3462 29.8129 19.3462Z" fill="#9CA1AF"/>
<path d="M38.5799 12.1503L40.0057 10.3834C40.4866 9.78758 40.3197 8.96629 39.633 8.54908L34.6598 5.52746C33.9731 5.11025 33.0266 5.25502 32.5458 5.85093L31.12 7.61785C30.9458 7.83361 31.0063 8.13109 31.2549 8.28213L37.8143 12.2674C38.063 12.4186 38.4057 12.3661 38.5799 12.1503Z" fill="#F2F6FC"/>
<path d="M23.1276 24.831C23.0343 24.831 22.9396 24.8144 22.8489 24.7795C22.5022 24.6457 22.3459 24.2934 22.5 23.9925L25.2443 18.6346C25.3985 18.3336 25.8046 18.1981 26.1513 18.3319C26.498 18.4656 26.6542 18.8179 26.5001 19.1188L23.7558 24.4767C23.6421 24.6989 23.3908 24.831 23.1276 24.831Z" fill="#9CA1AF"/>
<path d="M22.8367 12.2916C22.4841 12.2916 22.1348 12.3031 21.7886 12.3247C29.2626 12.7907 35.1595 18.1992 35.1595 24.8033C35.1595 31.4074 29.2626 36.8158 21.7886 37.2817C22.1348 37.3033 22.4841 37.3149 22.8367 37.3149C30.8 37.3149 37.2557 31.7132 37.2557 24.8033C37.2557 17.8933 30.8 12.2916 22.8367 12.2916Z" fill="#CDD2E1"/>
<path d="M23.306 26.0614C24.1074 25.8469 24.5566 25.1092 24.3093 24.4138C24.062 23.7184 23.2119 23.3287 22.4105 23.5433C21.6091 23.7578 21.1599 24.4955 21.4072 25.1909C21.6545 25.8862 22.5046 26.276 23.306 26.0614Z" fill="#717891"/>
<path d="M39.6329 8.54908L34.6597 5.52746C34.0598 5.16296 33.2618 5.22751 32.749 5.64686L37.5257 8.549C38.2123 8.96621 38.3793 9.7875 37.8985 10.3833L36.8506 11.6818L37.8143 12.2673C38.0629 12.4185 38.4057 12.366 38.5798 12.1502L40.0057 10.3833C40.4865 9.78758 40.3195 8.96629 39.6329 8.54908Z" fill="#CDD2E1"/>
<path d="M14.5536 7.61786L13.1278 5.85094C12.6469 5.25511 11.7004 5.11026 11.0138 5.52747L10.8173 5.64687C10.8915 5.70753 10.9598 5.77558 11.0206 5.85086L12.4464 7.61778C12.6206 7.83354 12.5601 8.13102 12.3114 8.28206L6.71582 11.6819L7.09374 12.1502C7.26791 12.366 7.61065 12.4184 7.8593 12.2673L14.4186 8.28198C14.6673 8.13102 14.7277 7.83362 14.5536 7.61786Z" fill="#CDD2E1"/>
<path d="M12.0745 8.09849C11.8568 7.82868 11.4283 7.76325 11.1175 7.95206C10.8067 8.14094 10.7311 8.51268 10.9488 8.78241L11.8193 9.86127L12.945 9.17728L12.0745 8.09849Z" fill="#9CA1AF"/>
<path d="M10.4585 10.6882L9.58792 9.60943C9.37033 9.33962 8.94183 9.27419 8.63098 9.463C8.32012 9.65189 8.24453 10.0237 8.46222 10.2934L9.33276 11.3721L10.4585 10.6882Z" fill="#9CA1AF"/>
<path d="M34.556 7.95256C34.2452 7.76367 33.8168 7.82926 33.5991 8.09899L32.7285 9.17786L33.8542 9.86186L34.7248 8.78299C34.9425 8.5131 34.8669 8.14137 34.556 7.95256Z" fill="#9CA1AF"/>
<path d="M37.0426 9.46298C36.7317 9.27409 36.3033 9.33968 36.0856 9.60942L35.2151 10.6882L36.3408 11.3722L37.2113 10.2934C37.4289 10.0236 37.3534 9.65187 37.0426 9.46298Z" fill="#9CA1AF"/>
</g>
<defs>
<clipPath id="clip0">
<rect x="0.0698242" y="0.438477" width="45.5338" height="39.5104" fill="white"/>
</clipPath>
</defs>
</svg>
